<svg width="20" height="20" viewBox="0 0 40 34" fill="none" xmlns="http://www.w3.org/2000/svg">
<rect x="1" y="1" width="38" height="25" rx="3" fill="#D9D9D9"/>
<path d="M35.6703 1H4.32971C4.11044 1 3.89171 1.02166 3.6767 1.06466C2.3586 1.32828 1.32828 2.3586 1.06466 3.6767C1.02166 3.89171 1 4.11044 1 4.32971V22.6703C1 22.8896 1.02166 23.1083 1.06466 23.3233C1.32828 24.6414 2.3586 25.6717 3.6767 25.9353C3.89171 25.9783 4.11044 26 4.32971 26H33H34.7157C34.905 26 35.094 25.9866 35.2814 25.9598L35.5302 25.9243C37.2901 25.6728 38.6728 24.2901 38.9243 22.5302L38.9598 22.2814C38.9866 22.094 39 21.905 39 21.7157V4.32971C39 4.11044 38.9783 3.89171 38.9353 3.6767C38.6717 2.3586 37.6414 1.32828 36.3233 1.06466C36.1083 1.02166 35.8896 1 35.6703 1Z" stroke="#717171"/>
<path d="M23.5 32V26H28L23.5 32Z" stroke="#717171"/>
<path d="M24.5 29V25H27.5L24.5 29Z" stroke="#D9D9D9"/>
<rect x="25.4739" y="24.676" width="2.06086" height="2.70666" transform="rotate(33.0662 25.4739 24.676)" fill="#D9D9D9"/>
</svg>
